<?xml version="1.0" encoding="utf-8"?>
<!-- Generator: Adobe Illustrator 12.0.0, SVG Export Plug-In . SVG Version: 6.00 Build 51448)  -->
<!DOCTYPE svg PUBLIC "-//W3C//DTD SVG 1.1//EN" "http://www.w3.org/Graphics/SVG/1.1/DTD/svg11.dtd" [
	<!ENTITY ns_svg "http://www.w3.org/2000/svg">
	<!ENTITY ns_xlink "http://www.w3.org/1999/xlink">
]>
<svg  version="1.1" xmlns="&ns_svg;" xmlns:xlink="&ns_xlink;" width="2700" height="2700" viewBox="0 0 2700 2700"
	 overflow="visible" enable-background="new 0 0 2700 2700" xml:space="preserve">
<g id="Layer_2">
	<linearGradient id="XMLID_4_" gradientUnits="userSpaceOnUse" x1="-180.5" y1="1289.5" x2="2879.5" y2="1289.5">
		<stop  offset="0" style="stop-color:#6B21A8"/>
		<stop  offset="1" style="stop-color:#155E75"/>
	</linearGradient>
	<rect x="-180.5" y="949.5" fill="url(#XMLID_4_)" width="3060" height="680"/>
	<linearGradient id="XMLID_5_" gradientUnits="userSpaceOnUse" x1="-181.5" y1="1381.3447" x2="2879.5" y2="1381.3447">
		<stop  offset="0" style="stop-color:#6B21A8"/>
		<stop  offset="1" style="stop-color:#155E75"/>
	</linearGradient>
	<path fill="url(#XMLID_5_)" d="M2879.5,1629.5c0,0-223-462-507-495s-1006,569-1551,487s-998-443-1003-467"/>
	<text transform="matrix(1 0 0 1 1114.499 1419.499)" fill="#FFFFFF" font-family="'Calibri'" font-size="360">SigmaFi</text>
</g>
<g id="Layer_1">
	
		<linearGradient id="XMLID_6_" gradientUnits="userSpaceOnUse" x1="385.2285" y1="1404.249" x2="978.7657" y2="1419.7557" gradientTransform="matrix(1 0 0 -1 0 2699)">
		<stop  offset="0" style="stop-color:#6B21A8"/>
		<stop  offset="1" style="stop-color:#155E75"/>
	</linearGradient>
	<path fill="url(#XMLID_6_)" d="M682,990.13c163.955,0,296.865,132.913,296.865,296.87c0,163.955-132.91,296.865-296.865,296.865
		c-163.958,0-296.87-132.91-296.87-296.865C385.13,1123.042,518.042,990.13,682,990.13z"/>
	<path fill="#FFFFFF" d="M674.2,1408.899c8.809-12.007,11.819-29.604,2.087-43.159c-10.891-15.176-46.409-23.442-72.444-29.507
		c-7.461-1.743-14.143-3.291-19.243-4.775c-28.728-8.364-53.43-16.357-72.908-34.292c-45.61-41.987-36.501-112.358,10.938-143.623
		c34.18-22.532,72.51-22.122,111.877-21.304h122.2l74.424,0.483l43.208-0.515c11.025-0.132,20.029,8.765,20.029,19.788v19.868
		c0,10.977-8.936,19.856-19.912,19.79l-8.789-0.049c-0.376,0.054-0.723,0.085-1.055,0.093c-3.384,0.088-6.865,0.073-17.358,0.042
		c-10.796-0.037-29.014-0.103-62.178-0.105c-40.181-0.056-62.93-0.027-80.469,0c-19.102,0.027-32.029,0.044-54.553-0.071
		c-3.503-0.005-7.317-0.037-11.321-0.071c-23.123-0.2-52.722-0.454-66.98,4.771c-26.177,10.515-29.924,34.961-11.482,49.702
		c12.222,9.771,44.414,18.267,62.046,22.385c71.509,16.716,133.442,37.366,130.127,122.468
		c-4.023,103.721-146.296,121.772-219.189,85.596c-41.709-20.703-55.837-57.329-63.518-99.658
		c-1.433-12.129,6.531-21.382,27.979-26.24c25.71-5.151,34.358,2.896,39.038,14.419c17.849,43.989,37.41,70.703,85.396,67.988
		C645.669,1431.585,662.835,1424.388,674.2,1408.899z"/>
	<path fill="#FFFFFF" d="M764.07,1250.716c0-9.109,7.388-16.494,16.494-16.494h32.104c9.111,0,16.494,7.385,16.494,16.494v25.068
		c0,9.109-7.383,16.489-16.494,16.489h-32.104c-9.106,0-16.494-7.38-16.494-16.489V1250.716z"/>
</g>
</svg>
